<svg width="18" height="18" viewBox="0 0 18 18" fill="none" xmlns="http://www.w3.org/2000/svg">
<path d="M5.65676 0.0351562C4.49661 0.0843735 3.70208 0.232031 3.03059 0.520311C2.40129 0.791016 2.02864 1.04062 1.56458 1.50117C0.938794 2.12344 0.54856 2.82305 0.302466 3.76172C0.0844971 4.59141 0.0352783 5.54414 0.0352783 9C0.0352783 12.3996 0.0809814 13.3629 0.284888 14.1926C0.791138 16.2562 2.30286 17.5711 4.52825 17.877C5.16458 17.9613 6.50051 18 9.05286 18C11.4259 18 12.7935 17.9648 13.4087 17.891C14.6673 17.7434 15.6517 17.3074 16.4286 16.5621C17.304 15.7184 17.7681 14.7094 17.9368 13.2715C18.0036 12.709 18.0036 5.20664 17.9368 4.67578C17.7997 3.6 17.4798 2.71406 16.9736 2.03555C16.7239 1.69805 16.1896 1.18828 15.8556 0.959764C15.0997 0.449999 14.1892 0.168749 12.9904 0.0667953C12.4243 0.0210934 6.61653 -0.00351715 5.65676 0.0351562ZM13.2611 1.7332C14.263 1.88086 14.8255 2.13047 15.3669 2.66836C15.7185 3.01992 15.9118 3.3293 16.0841 3.80742C16.3724 4.61602 16.4005 5.04492 16.4005 9.01758C16.4005 11.3062 16.3864 12.4066 16.3548 12.7758C16.2529 13.9957 16.0103 14.6531 15.4407 15.2613C14.8466 15.8941 14.1048 16.207 12.9552 16.3125C12.3329 16.3723 7.18958 16.4004 6.00481 16.3512C5.47043 16.3301 4.91145 16.2949 4.76028 16.2738C4.09583 16.1824 3.45247 15.9469 3.05168 15.6551C2.80208 15.4688 2.40129 15.0328 2.25364 14.7867C1.95833 14.2945 1.78254 13.602 1.72278 12.723C1.61731 11.127 1.65247 5.64961 1.772 4.74258C1.89856 3.80391 2.19036 3.17109 2.74231 2.63672C3.347 2.04961 4.14153 1.76484 5.372 1.6875C5.63918 1.67344 7.43567 1.66289 9.36926 1.66992C12.3681 1.67695 12.9411 1.68398 13.2611 1.7332Z" fill="#48B84A"/>
<path d="M13.3665 3.23438C12.9693 3.43477 12.7794 3.74414 12.7794 4.20117C12.7794 4.53164 12.8568 4.72852 13.0818 4.95352C13.3068 5.175 13.5036 5.25586 13.8341 5.25586C14.0697 5.25586 14.147 5.2418 14.3158 5.15742C14.6708 4.98164 14.8712 4.67578 14.8994 4.26797C14.924 3.90586 14.8431 3.69492 14.5935 3.4418C14.3615 3.20977 14.1576 3.12891 13.8165 3.12891C13.6267 3.12891 13.5423 3.15 13.3665 3.23438Z" fill="#48B84A"/>
<path d="M8.21275 4.45079C7.28814 4.61954 6.469 5.05196 5.77994 5.74454C4.86588 6.65509 4.42642 7.72032 4.42642 9.00001C4.42642 9.77345 4.57056 10.4098 4.89048 11.0496C5.87486 13.0043 8.04048 14.0063 10.1463 13.4824C10.976 13.275 11.6159 12.9164 12.2381 12.3152C12.7971 11.7738 13.1733 11.1832 13.4088 10.4766C13.5776 9.96681 13.6409 9.57306 13.6409 9.00001C13.6409 8.43048 13.5776 8.03321 13.4124 7.534C13.1874 6.859 12.8604 6.32462 12.3506 5.79728C11.6545 5.08009 10.7862 4.61603 9.82994 4.44728C9.4397 4.38048 8.59244 4.38048 8.21275 4.45079ZM9.60494 6.06095C11.2151 6.37032 12.2838 7.95235 11.9745 9.57306C11.7846 10.5539 11.0639 11.4258 10.1428 11.7809C9.69283 11.9567 9.43267 11.9988 8.91236 11.9777C8.54322 11.9637 8.39908 11.9426 8.1565 11.8652C7.09127 11.5277 6.31431 10.6664 6.09634 9.5836C6.01197 9.16525 6.04361 8.51485 6.17017 8.1211C6.50064 7.07345 7.38306 6.2754 8.43423 6.06446C8.74713 6.00118 9.28853 6.00118 9.60494 6.06095Z" fill="#48B84A"/>
</svg>
